<svg xmlns="http://www.w3.org/2000/svg" xmlns:xlink="http://www.w3.org/1999/xlink" width="48.847626" zoomAndPan="magnify" viewBox="14.95 22.5 48.847626 30" height="30" preserveAspectRatio="xMidYMid meet" version="1.0"><defs><g/><clipPath id="98d44de3a4"><path d="M 25.632812 22.5 L 49.632812 22.5 L 49.632812 52.5 L 25.632812 52.5 Z M 25.632812 22.5 " clip-rule="nonzero"/></clipPath><clipPath id="f028a5ff40"><path d="M 0.398438 1 L 14 1 L 14 5 L 0.398438 5 Z M 0.398438 1 " clip-rule="nonzero"/></clipPath><clipPath id="e8a86d8740"><path d="M 0.398438 12 L 1 12 L 1 13 L 0.398438 13 Z M 0.398438 12 " clip-rule="nonzero"/></clipPath><clipPath id="dce5e6048c"><path d="M 0.398438 20 L 4 20 L 4 21 L 0.398438 21 Z M 0.398438 20 " clip-rule="nonzero"/></clipPath><clipPath id="7e3086dfec"><rect x="0" width="51" y="0" height="24"/></clipPath></defs><g clip-path="url(#98d44de3a4)"><path fill="#010101" d="M 46.984375 35.5 L 45.976562 35.5 L 45.976562 30.75 C 45.976562 26.1875 42.246094 22.5 37.632812 22.5 C 33.015625 22.5 29.289062 26.1875 29.289062 30.75 L 29.289062 35.5 L 28.277344 35.5 C 26.886719 35.5 25.746094 36.625 25.746094 38 L 25.746094 50 C 25.746094 51.375 26.886719 52.5 28.277344 52.5 L 46.921875 52.5 C 48.3125 52.5 49.453125 51.375 49.453125 50 L 49.453125 38 C 49.515625 36.625 48.375 35.5 46.984375 35.5 Z M 30.550781 30.75 C 30.550781 26.875 33.777344 23.75 37.632812 23.75 C 41.488281 23.75 44.710938 26.875 44.710938 30.75 L 44.710938 35.5 L 42.6875 35.5 L 42.6875 30.75 C 42.6875 28 40.414062 25.75 37.632812 25.75 C 34.851562 25.75 32.574219 28 32.574219 30.75 L 32.574219 35.5 L 30.613281 35.5 L 30.613281 30.75 Z M 41.425781 35.5 L 33.839844 35.5 L 33.839844 30.75 C 33.839844 28.6875 35.546875 27 37.632812 27 C 39.71875 27 41.425781 28.6875 41.425781 30.75 Z M 48.25 50 C 48.25 50.6875 47.679688 51.25 46.984375 51.25 L 28.277344 51.25 C 27.582031 51.25 27.011719 50.6875 27.011719 50 L 27.011719 38 C 27.011719 37.3125 27.582031 36.75 28.277344 36.75 L 46.921875 36.75 C 47.617188 36.75 48.1875 37.3125 48.1875 38 L 48.1875 50 Z M 48.25 50 " fill-opacity="1" fill-rule="nonzero"/></g><path fill="#010101" d="M 40.792969 42.625 C 40.792969 40.9375 39.402344 39.5 37.632812 39.5 C 35.863281 39.5 34.472656 40.875 34.472656 42.625 C 34.472656 43.5 34.851562 44.375 35.546875 44.9375 L 34.914062 47.75 C 34.851562 47.9375 34.914062 48.125 35.039062 48.25 C 35.167969 48.375 35.355469 48.5 35.546875 48.5 L 39.71875 48.5 C 39.90625 48.5 40.097656 48.4375 40.222656 48.25 C 40.347656 48.0625 40.414062 47.9375 40.347656 47.75 L 39.71875 44.9375 C 40.414062 44.375 40.792969 43.5 40.792969 42.625 Z M 38.644531 44.1875 C 38.453125 44.3125 38.328125 44.5625 38.390625 44.8125 L 38.894531 47.25 L 36.367188 47.25 L 36.871094 44.8125 C 36.9375 44.5625 36.808594 44.3125 36.621094 44.1875 C 36.113281 43.8125 35.796875 43.25 35.796875 42.625 C 35.796875 41.625 36.621094 40.75 37.695312 40.75 C 38.769531 40.75 39.589844 41.5625 39.589844 42.625 C 39.527344 43.25 39.210938 43.8125 38.644531 44.1875 Z M 38.644531 44.1875 " fill-opacity="1" fill-rule="nonzero"/><g transform="matrix(1, 0, 0, 1, 14, 28)"><g clip-path="url(#7e3086dfec)"><g clip-path="url(#f028a5ff40)"><g fill="#000000" fill-opacity="1"><g transform="translate(0.60625, 4.899993)"><g><path d="M 0.453125 0 L 0.453125 -0.640625 L 1.421875 -0.640625 L 1.421875 -3.09375 L 0.578125 -2.625 L 0.34375 -3.21875 L 1.546875 -3.859375 L 2.15625 -3.859375 L 2.15625 -0.640625 L 3 -0.640625 L 3 0 Z M 0.453125 0 "/></g></g><g transform="translate(3.905076, 4.899993)"><g><path d="M 3.140625 -1.9375 C 3.140625 -1.613281 3.101562 -1.328125 3.03125 -1.078125 C 2.96875 -0.835938 2.867188 -0.628906 2.734375 -0.453125 C 2.609375 -0.285156 2.445312 -0.15625 2.25 -0.0625 C 2.0625 0.0195312 1.847656 0.0625 1.609375 0.0625 C 1.398438 0.0625 1.207031 0.0234375 1.03125 -0.046875 C 0.851562 -0.117188 0.695312 -0.234375 0.5625 -0.390625 C 0.4375 -0.554688 0.335938 -0.757812 0.265625 -1 C 0.191406 -1.25 0.15625 -1.546875 0.15625 -1.890625 C 0.15625 -2.210938 0.1875 -2.492188 0.25 -2.734375 C 0.320312 -2.984375 0.421875 -3.191406 0.546875 -3.359375 C 0.679688 -3.535156 0.84375 -3.664062 1.03125 -3.75 C 1.226562 -3.84375 1.445312 -3.890625 1.6875 -3.890625 C 1.90625 -3.890625 2.101562 -3.851562 2.28125 -3.78125 C 2.457031 -3.707031 2.609375 -3.59375 2.734375 -3.4375 C 2.859375 -3.28125 2.957031 -3.078125 3.03125 -2.828125 C 3.101562 -2.578125 3.140625 -2.28125 3.140625 -1.9375 Z M 0.875 -1.921875 C 0.875 -1.878906 0.875 -1.84375 0.875 -1.8125 C 0.875 -1.78125 0.875 -1.742188 0.875 -1.703125 L 2.3125 -2.75 C 2.25 -2.9375 2.160156 -3.078125 2.046875 -3.171875 C 1.929688 -3.265625 1.800781 -3.3125 1.65625 -3.3125 C 1.539062 -3.3125 1.4375 -3.28125 1.34375 -3.21875 C 1.25 -3.164062 1.164062 -3.082031 1.09375 -2.96875 C 1.03125 -2.851562 0.976562 -2.707031 0.9375 -2.53125 C 0.894531 -2.363281 0.875 -2.160156 0.875 -1.921875 Z M 2.421875 -1.90625 C 2.421875 -1.9375 2.421875 -1.96875 2.421875 -2 C 2.421875 -2.039062 2.421875 -2.078125 2.421875 -2.109375 L 0.984375 -1.078125 C 1.046875 -0.890625 1.132812 -0.75 1.25 -0.65625 C 1.363281 -0.5625 1.5 -0.515625 1.65625 -0.515625 C 1.757812 -0.515625 1.859375 -0.539062 1.953125 -0.59375 C 2.046875 -0.65625 2.128906 -0.742188 2.203125 -0.859375 C 2.273438 -0.972656 2.328125 -1.113281 2.359375 -1.28125 C 2.398438 -1.457031 2.421875 -1.664062 2.421875 -1.90625 Z M 2.421875 -1.90625 "/></g></g><g transform="translate(7.203902, 4.899993)"><g><path d="M 0.453125 0 L 0.453125 -0.640625 L 1.421875 -0.640625 L 1.421875 -3.09375 L 0.578125 -2.625 L 0.34375 -3.21875 L 1.546875 -3.859375 L 2.15625 -3.859375 L 2.15625 -0.640625 L 3 -0.640625 L 3 0 Z M 0.453125 0 "/></g></g><g transform="translate(10.502728, 4.899993)"><g><path d="M 3.140625 -1.9375 C 3.140625 -1.613281 3.101562 -1.328125 3.03125 -1.078125 C 2.96875 -0.835938 2.867188 -0.628906 2.734375 -0.453125 C 2.609375 -0.285156 2.445312 -0.15625 2.25 -0.0625 C 2.0625 0.0195312 1.847656 0.0625 1.609375 0.0625 C 1.398438 0.0625 1.207031 0.0234375 1.03125 -0.046875 C 0.851562 -0.117188 0.695312 -0.234375 0.5625 -0.390625 C 0.4375 -0.554688 0.335938 -0.757812 0.265625 -1 C 0.191406 -1.25 0.15625 -1.546875 0.15625 -1.890625 C 0.15625 -2.210938 0.1875 -2.492188 0.25 -2.734375 C 0.320312 -2.984375 0.421875 -3.191406 0.546875 -3.359375 C 0.679688 -3.535156 0.84375 -3.664062 1.03125 -3.75 C 1.226562 -3.84375 1.445312 -3.890625 1.6875 -3.890625 C 1.90625 -3.890625 2.101562 -3.851562 2.28125 -3.78125 C 2.457031 -3.707031 2.609375 -3.59375 2.734375 -3.4375 C 2.859375 -3.28125 2.957031 -3.078125 3.03125 -2.828125 C 3.101562 -2.578125 3.140625 -2.28125 3.140625 -1.9375 Z M 0.875 -1.921875 C 0.875 -1.878906 0.875 -1.84375 0.875 -1.8125 C 0.875 -1.78125 0.875 -1.742188 0.875 -1.703125 L 2.3125 -2.75 C 2.25 -2.9375 2.160156 -3.078125 2.046875 -3.171875 C 1.929688 -3.265625 1.800781 -3.3125 1.65625 -3.3125 C 1.539062 -3.3125 1.4375 -3.28125 1.34375 -3.21875 C 1.25 -3.164062 1.164062 -3.082031 1.09375 -2.96875 C 1.03125 -2.851562 0.976562 -2.707031 0.9375 -2.53125 C 0.894531 -2.363281 0.875 -2.160156 0.875 -1.921875 Z M 2.421875 -1.90625 C 2.421875 -1.9375 2.421875 -1.96875 2.421875 -2 C 2.421875 -2.039062 2.421875 -2.078125 2.421875 -2.109375 L 0.984375 -1.078125 C 1.046875 -0.890625 1.132812 -0.75 1.25 -0.65625 C 1.363281 -0.5625 1.5 -0.515625 1.65625 -0.515625 C 1.757812 -0.515625 1.859375 -0.539062 1.953125 -0.59375 C 2.046875 -0.65625 2.128906 -0.742188 2.203125 -0.859375 C 2.273438 -0.972656 2.328125 -1.113281 2.359375 -1.28125 C 2.398438 -1.457031 2.421875 -1.664062 2.421875 -1.90625 Z M 2.421875 -1.90625 "/></g></g></g></g><g fill="#000000" fill-opacity="1"><g transform="translate(13.801554, 4.899993)"><g/></g><g transform="translate(17.10038, 4.899993)"><g/></g></g><g fill="#000000" fill-opacity="1"><g transform="translate(20.403112, 4.899993)"><g><path d="M 0.453125 0 L 0.453125 -0.640625 L 1.421875 -0.640625 L 1.421875 -3.09375 L 0.578125 -2.625 L 0.34375 -3.21875 L 1.546875 -3.859375 L 2.15625 -3.859375 L 2.15625 -0.640625 L 3 -0.640625 L 3 0 Z M 0.453125 0 "/></g></g><g transform="translate(23.701938, 4.899993)"><g><path d="M 3.140625 -1.9375 C 3.140625 -1.613281 3.101562 -1.328125 3.03125 -1.078125 C 2.96875 -0.835938 2.867188 -0.628906 2.734375 -0.453125 C 2.609375 -0.285156 2.445312 -0.15625 2.25 -0.0625 C 2.0625 0.0195312 1.847656 0.0625 1.609375 0.0625 C 1.398438 0.0625 1.207031 0.0234375 1.03125 -0.046875 C 0.851562 -0.117188 0.695312 -0.234375 0.5625 -0.390625 C 0.4375 -0.554688 0.335938 -0.757812 0.265625 -1 C 0.191406 -1.25 0.15625 -1.546875 0.15625 -1.890625 C 0.15625 -2.210938 0.1875 -2.492188 0.25 -2.734375 C 0.320312 -2.984375 0.421875 -3.191406 0.546875 -3.359375 C 0.679688 -3.535156 0.84375 -3.664062 1.03125 -3.75 C 1.226562 -3.84375 1.445312 -3.890625 1.6875 -3.890625 C 1.90625 -3.890625 2.101562 -3.851562 2.28125 -3.78125 C 2.457031 -3.707031 2.609375 -3.59375 2.734375 -3.4375 C 2.859375 -3.28125 2.957031 -3.078125 3.03125 -2.828125 C 3.101562 -2.578125 3.140625 -2.28125 3.140625 -1.9375 Z M 0.875 -1.921875 C 0.875 -1.878906 0.875 -1.84375 0.875 -1.8125 C 0.875 -1.78125 0.875 -1.742188 0.875 -1.703125 L 2.3125 -2.75 C 2.25 -2.9375 2.160156 -3.078125 2.046875 -3.171875 C 1.929688 -3.265625 1.800781 -3.3125 1.65625 -3.3125 C 1.539062 -3.3125 1.4375 -3.28125 1.34375 -3.21875 C 1.25 -3.164062 1.164062 -3.082031 1.09375 -2.96875 C 1.03125 -2.851562 0.976562 -2.707031 0.9375 -2.53125 C 0.894531 -2.363281 0.875 -2.160156 0.875 -1.921875 Z M 2.421875 -1.90625 C 2.421875 -1.9375 2.421875 -1.96875 2.421875 -2 C 2.421875 -2.039062 2.421875 -2.078125 2.421875 -2.109375 L 0.984375 -1.078125 C 1.046875 -0.890625 1.132812 -0.75 1.25 -0.65625 C 1.363281 -0.5625 1.5 -0.515625 1.65625 -0.515625 C 1.757812 -0.515625 1.859375 -0.539062 1.953125 -0.59375 C 2.046875 -0.65625 2.128906 -0.742188 2.203125 -0.859375 C 2.273438 -0.972656 2.328125 -1.113281 2.359375 -1.28125 C 2.398438 -1.457031 2.421875 -1.664062 2.421875 -1.90625 Z M 2.421875 -1.90625 "/></g></g></g><g fill="#000000" fill-opacity="1"><g transform="translate(27.00467, 4.899993)"><g/></g><g transform="translate(30.303496, 4.899993)"><g/></g></g><g fill="#000000" fill-opacity="1"><g transform="translate(33.606228, 4.899993)"><g><path d="M 0.453125 0 L 0.453125 -0.640625 L 1.421875 -0.640625 L 1.421875 -3.09375 L 0.578125 -2.625 L 0.34375 -3.21875 L 1.546875 -3.859375 L 2.15625 -3.859375 L 2.15625 -0.640625 L 3 -0.640625 L 3 0 Z M 0.453125 0 "/></g></g><g transform="translate(36.905054, 4.899993)"><g><path d="M 3.140625 -1.9375 C 3.140625 -1.613281 3.101562 -1.328125 3.03125 -1.078125 C 2.96875 -0.835938 2.867188 -0.628906 2.734375 -0.453125 C 2.609375 -0.285156 2.445312 -0.15625 2.25 -0.0625 C 2.0625 0.0195312 1.847656 0.0625 1.609375 0.0625 C 1.398438 0.0625 1.207031 0.0234375 1.03125 -0.046875 C 0.851562 -0.117188 0.695312 -0.234375 0.5625 -0.390625 C 0.4375 -0.554688 0.335938 -0.757812 0.265625 -1 C 0.191406 -1.25 0.15625 -1.546875 0.15625 -1.890625 C 0.15625 -2.210938 0.1875 -2.492188 0.25 -2.734375 C 0.320312 -2.984375 0.421875 -3.191406 0.546875 -3.359375 C 0.679688 -3.535156 0.84375 -3.664062 1.03125 -3.75 C 1.226562 -3.84375 1.445312 -3.890625 1.6875 -3.890625 C 1.90625 -3.890625 2.101562 -3.851562 2.28125 -3.78125 C 2.457031 -3.707031 2.609375 -3.59375 2.734375 -3.4375 C 2.859375 -3.28125 2.957031 -3.078125 3.03125 -2.828125 C 3.101562 -2.578125 3.140625 -2.28125 3.140625 -1.9375 Z M 0.875 -1.921875 C 0.875 -1.878906 0.875 -1.84375 0.875 -1.8125 C 0.875 -1.78125 0.875 -1.742188 0.875 -1.703125 L 2.3125 -2.75 C 2.25 -2.9375 2.160156 -3.078125 2.046875 -3.171875 C 1.929688 -3.265625 1.800781 -3.3125 1.65625 -3.3125 C 1.539062 -3.3125 1.4375 -3.28125 1.34375 -3.21875 C 1.25 -3.164062 1.164062 -3.082031 1.09375 -2.96875 C 1.03125 -2.851562 0.976562 -2.707031 0.9375 -2.53125 C 0.894531 -2.363281 0.875 -2.160156 0.875 -1.921875 Z M 2.421875 -1.90625 C 2.421875 -1.9375 2.421875 -1.96875 2.421875 -2 C 2.421875 -2.039062 2.421875 -2.078125 2.421875 -2.109375 L 0.984375 -1.078125 C 1.046875 -0.890625 1.132812 -0.75 1.25 -0.65625 C 1.363281 -0.5625 1.5 -0.515625 1.65625 -0.515625 C 1.757812 -0.515625 1.859375 -0.539062 1.953125 -0.59375 C 2.046875 -0.65625 2.128906 -0.742188 2.203125 -0.859375 C 2.273438 -0.972656 2.328125 -1.113281 2.359375 -1.28125 C 2.398438 -1.457031 2.421875 -1.664062 2.421875 -1.90625 Z M 2.421875 -1.90625 "/></g></g><g transform="translate(40.20388, 4.899993)"><g><path d="M 0.453125 0 L 0.453125 -0.640625 L 1.421875 -0.640625 L 1.421875 -3.09375 L 0.578125 -2.625 L 0.34375 -3.21875 L 1.546875 -3.859375 L 2.15625 -3.859375 L 2.15625 -0.640625 L 3 -0.640625 L 3 0 Z M 0.453125 0 "/></g></g></g><g clip-path="url(#e8a86d8740)"><g fill="#000000" fill-opacity="1"><g transform="translate(0.60625, 12.899988)"><g/></g></g></g><g fill="#000000" fill-opacity="1"><g transform="translate(3.910936, 12.899988)"><g><path d="M 0.453125 0 L 0.453125 -0.640625 L 1.421875 -0.640625 L 1.421875 -3.09375 L 0.578125 -2.625 L 0.34375 -3.21875 L 1.546875 -3.859375 L 2.15625 -3.859375 L 2.15625 -0.640625 L 3 -0.640625 L 3 0 Z M 0.453125 0 "/></g></g><g transform="translate(7.209761, 12.899988)"><g><path d="M 0.453125 0 L 0.453125 -0.640625 L 1.421875 -0.640625 L 1.421875 -3.09375 L 0.578125 -2.625 L 0.34375 -3.21875 L 1.546875 -3.859375 L 2.15625 -3.859375 L 2.15625 -0.640625 L 3 -0.640625 L 3 0 Z M 0.453125 0 "/></g></g><g transform="translate(10.508587, 12.899988)"><g/></g><g transform="translate(13.807413, 12.899988)"><g><path d="M 3.140625 -1.9375 C 3.140625 -1.613281 3.101562 -1.328125 3.03125 -1.078125 C 2.96875 -0.835938 2.867188 -0.628906 2.734375 -0.453125 C 2.609375 -0.285156 2.445312 -0.15625 2.25 -0.0625 C 2.0625 0.0195312 1.847656 0.0625 1.609375 0.0625 C 1.398438 0.0625 1.207031 0.0234375 1.03125 -0.046875 C 0.851562 -0.117188 0.695312 -0.234375 0.5625 -0.390625 C 0.4375 -0.554688 0.335938 -0.757812 0.265625 -1 C 0.191406 -1.25 0.15625 -1.546875 0.15625 -1.890625 C 0.15625 -2.210938 0.1875 -2.492188 0.25 -2.734375 C 0.320312 -2.984375 0.421875 -3.191406 0.546875 -3.359375 C 0.679688 -3.535156 0.84375 -3.664062 1.03125 -3.75 C 1.226562 -3.84375 1.445312 -3.890625 1.6875 -3.890625 C 1.90625 -3.890625 2.101562 -3.851562 2.28125 -3.78125 C 2.457031 -3.707031 2.609375 -3.59375 2.734375 -3.4375 C 2.859375 -3.28125 2.957031 -3.078125 3.03125 -2.828125 C 3.101562 -2.578125 3.140625 -2.28125 3.140625 -1.9375 Z M 0.875 -1.921875 C 0.875 -1.878906 0.875 -1.84375 0.875 -1.8125 C 0.875 -1.78125 0.875 -1.742188 0.875 -1.703125 L 2.3125 -2.75 C 2.25 -2.9375 2.160156 -3.078125 2.046875 -3.171875 C 1.929688 -3.265625 1.800781 -3.3125 1.65625 -3.3125 C 1.539062 -3.3125 1.4375 -3.28125 1.34375 -3.21875 C 1.25 -3.164062 1.164062 -3.082031 1.09375 -2.96875 C 1.03125 -2.851562 0.976562 -2.707031 0.9375 -2.53125 C 0.894531 -2.363281 0.875 -2.160156 0.875 -1.921875 Z M 2.421875 -1.90625 C 2.421875 -1.9375 2.421875 -1.96875 2.421875 -2 C 2.421875 -2.039062 2.421875 -2.078125 2.421875 -2.109375 L 0.984375 -1.078125 C 1.046875 -0.890625 1.132812 -0.75 1.25 -0.65625 C 1.363281 -0.5625 1.5 -0.515625 1.65625 -0.515625 C 1.757812 -0.515625 1.859375 -0.539062 1.953125 -0.59375 C 2.046875 -0.65625 2.128906 -0.742188 2.203125 -0.859375 C 2.273438 -0.972656 2.328125 -1.113281 2.359375 -1.28125 C 2.398438 -1.457031 2.421875 -1.664062 2.421875 -1.90625 Z M 2.421875 -1.90625 "/></g></g><g transform="translate(17.106239, 12.899988)"><g><path d="M 0.453125 0 L 0.453125 -0.640625 L 1.421875 -0.640625 L 1.421875 -3.09375 L 0.578125 -2.625 L 0.34375 -3.21875 L 1.546875 -3.859375 L 2.15625 -3.859375 L 2.15625 -0.640625 L 3 -0.640625 L 3 0 Z M 0.453125 0 "/></g></g><g transform="translate(20.405065, 12.899988)"><g><path d="M 0.453125 0 L 0.453125 -0.640625 L 1.421875 -0.640625 L 1.421875 -3.09375 L 0.578125 -2.625 L 0.34375 -3.21875 L 1.546875 -3.859375 L 2.15625 -3.859375 L 2.15625 -0.640625 L 3 -0.640625 L 3 0 Z M 0.453125 0 "/></g></g><g transform="translate(23.703891, 12.899988)"><g><path d="M 3.140625 -1.9375 C 3.140625 -1.613281 3.101562 -1.328125 3.03125 -1.078125 C 2.96875 -0.835938 2.867188 -0.628906 2.734375 -0.453125 C 2.609375 -0.285156 2.445312 -0.15625 2.25 -0.0625 C 2.0625 0.0195312 1.847656 0.0625 1.609375 0.0625 C 1.398438 0.0625 1.207031 0.0234375 1.03125 -0.046875 C 0.851562 -0.117188 0.695312 -0.234375 0.5625 -0.390625 C 0.4375 -0.554688 0.335938 -0.757812 0.265625 -1 C 0.191406 -1.25 0.15625 -1.546875 0.15625 -1.890625 C 0.15625 -2.210938 0.1875 -2.492188 0.25 -2.734375 C 0.320312 -2.984375 0.421875 -3.191406 0.546875 -3.359375 C 0.679688 -3.535156 0.84375 -3.664062 1.03125 -3.75 C 1.226562 -3.84375 1.445312 -3.890625 1.6875 -3.890625 C 1.90625 -3.890625 2.101562 -3.851562 2.28125 -3.78125 C 2.457031 -3.707031 2.609375 -3.59375 2.734375 -3.4375 C 2.859375 -3.28125 2.957031 -3.078125 3.03125 -2.828125 C 3.101562 -2.578125 3.140625 -2.28125 3.140625 -1.9375 Z M 0.875 -1.921875 C 0.875 -1.878906 0.875 -1.84375 0.875 -1.8125 C 0.875 -1.78125 0.875 -1.742188 0.875 -1.703125 L 2.3125 -2.75 C 2.25 -2.9375 2.160156 -3.078125 2.046875 -3.171875 C 1.929688 -3.265625 1.800781 -3.3125 1.65625 -3.3125 C 1.539062 -3.3125 1.4375 -3.28125 1.34375 -3.21875 C 1.25 -3.164062 1.164062 -3.082031 1.09375 -2.96875 C 1.03125 -2.851562 0.976562 -2.707031 0.9375 -2.53125 C 0.894531 -2.363281 0.875 -2.160156 0.875 -1.921875 Z M 2.421875 -1.90625 C 2.421875 -1.9375 2.421875 -1.96875 2.421875 -2 C 2.421875 -2.039062 2.421875 -2.078125 2.421875 -2.109375 L 0.984375 -1.078125 C 1.046875 -0.890625 1.132812 -0.75 1.25 -0.65625 C 1.363281 -0.5625 1.5 -0.515625 1.65625 -0.515625 C 1.757812 -0.515625 1.859375 -0.539062 1.953125 -0.59375 C 2.046875 -0.65625 2.128906 -0.742188 2.203125 -0.859375 C 2.273438 -0.972656 2.328125 -1.113281 2.359375 -1.28125 C 2.398438 -1.457031 2.421875 -1.664062 2.421875 -1.90625 Z M 2.421875 -1.90625 "/></g></g><g transform="translate(27.002717, 12.899988)"><g><path d="M 0.453125 0 L 0.453125 -0.640625 L 1.421875 -0.640625 L 1.421875 -3.09375 L 0.578125 -2.625 L 0.34375 -3.21875 L 1.546875 -3.859375 L 2.15625 -3.859375 L 2.15625 -0.640625 L 3 -0.640625 L 3 0 Z M 0.453125 0 "/></g></g><g transform="translate(30.301543, 12.899988)"><g><path d="M 3.140625 -1.9375 C 3.140625 -1.613281 3.101562 -1.328125 3.03125 -1.078125 C 2.96875 -0.835938 2.867188 -0.628906 2.734375 -0.453125 C 2.609375 -0.285156 2.445312 -0.15625 2.25 -0.0625 C 2.0625 0.0195312 1.847656 0.0625 1.609375 0.0625 C 1.398438 0.0625 1.207031 0.0234375 1.03125 -0.046875 C 0.851562 -0.117188 0.695312 -0.234375 0.5625 -0.390625 C 0.4375 -0.554688 0.335938 -0.757812 0.265625 -1 C 0.191406 -1.25 0.15625 -1.546875 0.15625 -1.890625 C 0.15625 -2.210938 0.1875 -2.492188 0.25 -2.734375 C 0.320312 -2.984375 0.421875 -3.191406 0.546875 -3.359375 C 0.679688 -3.535156 0.84375 -3.664062 1.03125 -3.75 C 1.226562 -3.84375 1.445312 -3.890625 1.6875 -3.890625 C 1.90625 -3.890625 2.101562 -3.851562 2.28125 -3.78125 C 2.457031 -3.707031 2.609375 -3.59375 2.734375 -3.4375 C 2.859375 -3.28125 2.957031 -3.078125 3.03125 -2.828125 C 3.101562 -2.578125 3.140625 -2.28125 3.140625 -1.9375 Z M 0.875 -1.921875 C 0.875 -1.878906 0.875 -1.84375 0.875 -1.8125 C 0.875 -1.78125 0.875 -1.742188 0.875 -1.703125 L 2.3125 -2.75 C 2.25 -2.9375 2.160156 -3.078125 2.046875 -3.171875 C 1.929688 -3.265625 1.800781 -3.3125 1.65625 -3.3125 C 1.539062 -3.3125 1.4375 -3.28125 1.34375 -3.21875 C 1.25 -3.164062 1.164062 -3.082031 1.09375 -2.96875 C 1.03125 -2.851562 0.976562 -2.707031 0.9375 -2.53125 C 0.894531 -2.363281 0.875 -2.160156 0.875 -1.921875 Z M 2.421875 -1.90625 C 2.421875 -1.9375 2.421875 -1.96875 2.421875 -2 C 2.421875 -2.039062 2.421875 -2.078125 2.421875 -2.109375 L 0.984375 -1.078125 C 1.046875 -0.890625 1.132812 -0.75 1.25 -0.65625 C 1.363281 -0.5625 1.5 -0.515625 1.65625 -0.515625 C 1.757812 -0.515625 1.859375 -0.539062 1.953125 -0.59375 C 2.046875 -0.65625 2.128906 -0.742188 2.203125 -0.859375 C 2.273438 -0.972656 2.328125 -1.113281 2.359375 -1.28125 C 2.398438 -1.457031 2.421875 -1.664062 2.421875 -1.90625 Z M 2.421875 -1.90625 "/></g></g><g transform="translate(33.600369, 12.899988)"><g/></g><g transform="translate(36.899195, 12.899988)"><g><path d="M 3.140625 -1.9375 C 3.140625 -1.613281 3.101562 -1.328125 3.03125 -1.078125 C 2.96875 -0.835938 2.867188 -0.628906 2.734375 -0.453125 C 2.609375 -0.285156 2.445312 -0.15625 2.25 -0.0625 C 2.0625 0.0195312 1.847656 0.0625 1.609375 0.0625 C 1.398438 0.0625 1.207031 0.0234375 1.03125 -0.046875 C 0.851562 -0.117188 0.695312 -0.234375 0.5625 -0.390625 C 0.4375 -0.554688 0.335938 -0.757812 0.265625 -1 C 0.191406 -1.25 0.15625 -1.546875 0.15625 -1.890625 C 0.15625 -2.210938 0.1875 -2.492188 0.25 -2.734375 C 0.320312 -2.984375 0.421875 -3.191406 0.546875 -3.359375 C 0.679688 -3.535156 0.84375 -3.664062 1.03125 -3.75 C 1.226562 -3.84375 1.445312 -3.890625 1.6875 -3.890625 C 1.90625 -3.890625 2.101562 -3.851562 2.28125 -3.78125 C 2.457031 -3.707031 2.609375 -3.59375 2.734375 -3.4375 C 2.859375 -3.28125 2.957031 -3.078125 3.03125 -2.828125 C 3.101562 -2.578125 3.140625 -2.28125 3.140625 -1.9375 Z M 0.875 -1.921875 C 0.875 -1.878906 0.875 -1.84375 0.875 -1.8125 C 0.875 -1.78125 0.875 -1.742188 0.875 -1.703125 L 2.3125 -2.75 C 2.25 -2.9375 2.160156 -3.078125 2.046875 -3.171875 C 1.929688 -3.265625 1.800781 -3.3125 1.65625 -3.3125 C 1.539062 -3.3125 1.4375 -3.28125 1.34375 -3.21875 C 1.25 -3.164062 1.164062 -3.082031 1.09375 -2.96875 C 1.03125 -2.851562 0.976562 -2.707031 0.9375 -2.53125 C 0.894531 -2.363281 0.875 -2.160156 0.875 -1.921875 Z M 2.421875 -1.90625 C 2.421875 -1.9375 2.421875 -1.96875 2.421875 -2 C 2.421875 -2.039062 2.421875 -2.078125 2.421875 -2.109375 L 0.984375 -1.078125 C 1.046875 -0.890625 1.132812 -0.75 1.25 -0.65625 C 1.363281 -0.5625 1.5 -0.515625 1.65625 -0.515625 C 1.757812 -0.515625 1.859375 -0.539062 1.953125 -0.59375 C 2.046875 -0.65625 2.128906 -0.742188 2.203125 -0.859375 C 2.273438 -0.972656 2.328125 -1.113281 2.359375 -1.28125 C 2.398438 -1.457031 2.421875 -1.664062 2.421875 -1.90625 Z M 2.421875 -1.90625 "/></g></g><g transform="translate(40.198021, 12.899988)"><g><path d="M 0.453125 0 L 0.453125 -0.640625 L 1.421875 -0.640625 L 1.421875 -3.09375 L 0.578125 -2.625 L 0.34375 -3.21875 L 1.546875 -3.859375 L 2.15625 -3.859375 L 2.15625 -0.640625 L 3 -0.640625 L 3 0 Z M 0.453125 0 "/></g></g><g transform="translate(43.496847, 12.899988)"><g><path d="M 3.140625 -1.9375 C 3.140625 -1.613281 3.101562 -1.328125 3.03125 -1.078125 C 2.96875 -0.835938 2.867188 -0.628906 2.734375 -0.453125 C 2.609375 -0.285156 2.445312 -0.15625 2.25 -0.0625 C 2.0625 0.0195312 1.847656 0.0625 1.609375 0.0625 C 1.398438 0.0625 1.207031 0.0234375 1.03125 -0.046875 C 0.851562 -0.117188 0.695312 -0.234375 0.5625 -0.390625 C 0.4375 -0.554688 0.335938 -0.757812 0.265625 -1 C 0.191406 -1.25 0.15625 -1.546875 0.15625 -1.890625 C 0.15625 -2.210938 0.1875 -2.492188 0.25 -2.734375 C 0.320312 -2.984375 0.421875 -3.191406 0.546875 -3.359375 C 0.679688 -3.535156 0.84375 -3.664062 1.03125 -3.75 C 1.226562 -3.84375 1.445312 -3.890625 1.6875 -3.890625 C 1.90625 -3.890625 2.101562 -3.851562 2.28125 -3.78125 C 2.457031 -3.707031 2.609375 -3.59375 2.734375 -3.4375 C 2.859375 -3.28125 2.957031 -3.078125 3.03125 -2.828125 C 3.101562 -2.578125 3.140625 -2.28125 3.140625 -1.9375 Z M 0.875 -1.921875 C 0.875 -1.878906 0.875 -1.84375 0.875 -1.8125 C 0.875 -1.78125 0.875 -1.742188 0.875 -1.703125 L 2.3125 -2.75 C 2.25 -2.9375 2.160156 -3.078125 2.046875 -3.171875 C 1.929688 -3.265625 1.800781 -3.3125 1.65625 -3.3125 C 1.539062 -3.3125 1.4375 -3.28125 1.34375 -3.21875 C 1.25 -3.164062 1.164062 -3.082031 1.09375 -2.96875 C 1.03125 -2.851562 0.976562 -2.707031 0.9375 -2.53125 C 0.894531 -2.363281 0.875 -2.160156 0.875 -1.921875 Z M 2.421875 -1.90625 C 2.421875 -1.9375 2.421875 -1.96875 2.421875 -2 C 2.421875 -2.039062 2.421875 -2.078125 2.421875 -2.109375 L 0.984375 -1.078125 C 1.046875 -0.890625 1.132812 -0.75 1.25 -0.65625 C 1.363281 -0.5625 1.5 -0.515625 1.65625 -0.515625 C 1.757812 -0.515625 1.859375 -0.539062 1.953125 -0.59375 C 2.046875 -0.65625 2.128906 -0.742188 2.203125 -0.859375 C 2.273438 -0.972656 2.328125 -1.113281 2.359375 -1.28125 C 2.398438 -1.457031 2.421875 -1.664062 2.421875 -1.90625 Z M 2.421875 -1.90625 "/></g></g></g><g clip-path="url(#dce5e6048c)"><g fill="#000000" fill-opacity="1"><g transform="translate(0.60625, 20.899983)"><g/></g><g transform="translate(3.905076, 20.899983)"><g/></g></g></g><g fill="#000000" fill-opacity="1"><g transform="translate(7.207808, 20.899983)"><g><path d="M 0.453125 0 L 0.453125 -0.640625 L 1.421875 -0.640625 L 1.421875 -3.09375 L 0.578125 -2.625 L 0.34375 -3.21875 L 1.546875 -3.859375 L 2.15625 -3.859375 L 2.15625 -0.640625 L 3 -0.640625 L 3 0 Z M 0.453125 0 "/></g></g><g transform="translate(10.506634, 20.899983)"><g/></g><g transform="translate(13.80546, 20.899983)"><g><path d="M 3.140625 -1.9375 C 3.140625 -1.613281 3.101562 -1.328125 3.03125 -1.078125 C 2.96875 -0.835938 2.867188 -0.628906 2.734375 -0.453125 C 2.609375 -0.285156 2.445312 -0.15625 2.25 -0.0625 C 2.0625 0.0195312 1.847656 0.0625 1.609375 0.0625 C 1.398438 0.0625 1.207031 0.0234375 1.03125 -0.046875 C 0.851562 -0.117188 0.695312 -0.234375 0.5625 -0.390625 C 0.4375 -0.554688 0.335938 -0.757812 0.265625 -1 C 0.191406 -1.25 0.15625 -1.546875 0.15625 -1.890625 C 0.15625 -2.210938 0.1875 -2.492188 0.25 -2.734375 C 0.320312 -2.984375 0.421875 -3.191406 0.546875 -3.359375 C 0.679688 -3.535156 0.84375 -3.664062 1.03125 -3.75 C 1.226562 -3.84375 1.445312 -3.890625 1.6875 -3.890625 C 1.90625 -3.890625 2.101562 -3.851562 2.28125 -3.78125 C 2.457031 -3.707031 2.609375 -3.59375 2.734375 -3.4375 C 2.859375 -3.28125 2.957031 -3.078125 3.03125 -2.828125 C 3.101562 -2.578125 3.140625 -2.28125 3.140625 -1.9375 Z M 0.875 -1.921875 C 0.875 -1.878906 0.875 -1.84375 0.875 -1.8125 C 0.875 -1.78125 0.875 -1.742188 0.875 -1.703125 L 2.3125 -2.75 C 2.25 -2.9375 2.160156 -3.078125 2.046875 -3.171875 C 1.929688 -3.265625 1.800781 -3.3125 1.65625 -3.3125 C 1.539062 -3.3125 1.4375 -3.28125 1.34375 -3.21875 C 1.25 -3.164062 1.164062 -3.082031 1.09375 -2.96875 C 1.03125 -2.851562 0.976562 -2.707031 0.9375 -2.53125 C 0.894531 -2.363281 0.875 -2.160156 0.875 -1.921875 Z M 2.421875 -1.90625 C 2.421875 -1.9375 2.421875 -1.96875 2.421875 -2 C 2.421875 -2.039062 2.421875 -2.078125 2.421875 -2.109375 L 0.984375 -1.078125 C 1.046875 -0.890625 1.132812 -0.75 1.25 -0.65625 C 1.363281 -0.5625 1.5 -0.515625 1.65625 -0.515625 C 1.757812 -0.515625 1.859375 -0.539062 1.953125 -0.59375 C 2.046875 -0.65625 2.128906 -0.742188 2.203125 -0.859375 C 2.273438 -0.972656 2.328125 -1.113281 2.359375 -1.28125 C 2.398438 -1.457031 2.421875 -1.664062 2.421875 -1.90625 Z M 2.421875 -1.90625 "/></g></g><g transform="translate(17.104286, 20.899983)"><g><path d="M 0.453125 0 L 0.453125 -0.640625 L 1.421875 -0.640625 L 1.421875 -3.09375 L 0.578125 -2.625 L 0.34375 -3.21875 L 1.546875 -3.859375 L 2.15625 -3.859375 L 2.15625 -0.640625 L 3 -0.640625 L 3 0 Z M 0.453125 0 "/></g></g></g><g fill="#000000" fill-opacity="1"><g transform="translate(20.403112, 20.899983)"><g/></g><g transform="translate(23.701938, 20.899983)"><g/></g></g><g fill="#000000" fill-opacity="1"><g transform="translate(27.00467, 20.899983)"><g><path d="M 0.453125 0 L 0.453125 -0.640625 L 1.421875 -0.640625 L 1.421875 -3.09375 L 0.578125 -2.625 L 0.34375 -3.21875 L 1.546875 -3.859375 L 2.15625 -3.859375 L 2.15625 -0.640625 L 3 -0.640625 L 3 0 Z M 0.453125 0 "/></g></g><g transform="translate(30.303496, 20.899983)"><g><path d="M 3.140625 -1.9375 C 3.140625 -1.613281 3.101562 -1.328125 3.03125 -1.078125 C 2.96875 -0.835938 2.867188 -0.628906 2.734375 -0.453125 C 2.609375 -0.285156 2.445312 -0.15625 2.25 -0.0625 C 2.0625 0.0195312 1.847656 0.0625 1.609375 0.0625 C 1.398438 0.0625 1.207031 0.0234375 1.03125 -0.046875 C 0.851562 -0.117188 0.695312 -0.234375 0.5625 -0.390625 C 0.4375 -0.554688 0.335938 -0.757812 0.265625 -1 C 0.191406 -1.25 0.15625 -1.546875 0.15625 -1.890625 C 0.15625 -2.210938 0.1875 -2.492188 0.25 -2.734375 C 0.320312 -2.984375 0.421875 -3.191406 0.546875 -3.359375 C 0.679688 -3.535156 0.84375 -3.664062 1.03125 -3.75 C 1.226562 -3.84375 1.445312 -3.890625 1.6875 -3.890625 C 1.90625 -3.890625 2.101562 -3.851562 2.28125 -3.78125 C 2.457031 -3.707031 2.609375 -3.59375 2.734375 -3.4375 C 2.859375 -3.28125 2.957031 -3.078125 3.03125 -2.828125 C 3.101562 -2.578125 3.140625 -2.28125 3.140625 -1.9375 Z M 0.875 -1.921875 C 0.875 -1.878906 0.875 -1.84375 0.875 -1.8125 C 0.875 -1.78125 0.875 -1.742188 0.875 -1.703125 L 2.3125 -2.75 C 2.25 -2.9375 2.160156 -3.078125 2.046875 -3.171875 C 1.929688 -3.265625 1.800781 -3.3125 1.65625 -3.3125 C 1.539062 -3.3125 1.4375 -3.28125 1.34375 -3.21875 C 1.25 -3.164062 1.164062 -3.082031 1.09375 -2.96875 C 1.03125 -2.851562 0.976562 -2.707031 0.9375 -2.53125 C 0.894531 -2.363281 0.875 -2.160156 0.875 -1.921875 Z M 2.421875 -1.90625 C 2.421875 -1.9375 2.421875 -1.96875 2.421875 -2 C 2.421875 -2.039062 2.421875 -2.078125 2.421875 -2.109375 L 0.984375 -1.078125 C 1.046875 -0.890625 1.132812 -0.75 1.25 -0.65625 C 1.363281 -0.5625 1.5 -0.515625 1.65625 -0.515625 C 1.757812 -0.515625 1.859375 -0.539062 1.953125 -0.59375 C 2.046875 -0.65625 2.128906 -0.742188 2.203125 -0.859375 C 2.273438 -0.972656 2.328125 -1.113281 2.359375 -1.28125 C 2.398438 -1.457031 2.421875 -1.664062 2.421875 -1.90625 Z M 2.421875 -1.90625 "/></g></g><g transform="translate(33.602322, 20.899983)"><g/></g><g transform="translate(36.901148, 20.899983)"><g><path d="M 0.453125 0 L 0.453125 -0.640625 L 1.421875 -0.640625 L 1.421875 -3.09375 L 0.578125 -2.625 L 0.34375 -3.21875 L 1.546875 -3.859375 L 2.15625 -3.859375 L 2.15625 -0.640625 L 3 -0.640625 L 3 0 Z M 0.453125 0 "/></g></g><g transform="translate(40.199974, 20.899983)"><g><path d="M 3.140625 -1.9375 C 3.140625 -1.613281 3.101562 -1.328125 3.03125 -1.078125 C 2.96875 -0.835938 2.867188 -0.628906 2.734375 -0.453125 C 2.609375 -0.285156 2.445312 -0.15625 2.25 -0.0625 C 2.0625 0.0195312 1.847656 0.0625 1.609375 0.0625 C 1.398438 0.0625 1.207031 0.0234375 1.03125 -0.046875 C 0.851562 -0.117188 0.695312 -0.234375 0.5625 -0.390625 C 0.4375 -0.554688 0.335938 -0.757812 0.265625 -1 C 0.191406 -1.25 0.15625 -1.546875 0.15625 -1.890625 C 0.15625 -2.210938 0.1875 -2.492188 0.25 -2.734375 C 0.320312 -2.984375 0.421875 -3.191406 0.546875 -3.359375 C 0.679688 -3.535156 0.84375 -3.664062 1.03125 -3.75 C 1.226562 -3.84375 1.445312 -3.890625 1.6875 -3.890625 C 1.90625 -3.890625 2.101562 -3.851562 2.28125 -3.78125 C 2.457031 -3.707031 2.609375 -3.59375 2.734375 -3.4375 C 2.859375 -3.28125 2.957031 -3.078125 3.03125 -2.828125 C 3.101562 -2.578125 3.140625 -2.28125 3.140625 -1.9375 Z M 0.875 -1.921875 C 0.875 -1.878906 0.875 -1.84375 0.875 -1.8125 C 0.875 -1.78125 0.875 -1.742188 0.875 -1.703125 L 2.3125 -2.75 C 2.25 -2.9375 2.160156 -3.078125 2.046875 -3.171875 C 1.929688 -3.265625 1.800781 -3.3125 1.65625 -3.3125 C 1.539062 -3.3125 1.4375 -3.28125 1.34375 -3.21875 C 1.25 -3.164062 1.164062 -3.082031 1.09375 -2.96875 C 1.03125 -2.851562 0.976562 -2.707031 0.9375 -2.53125 C 0.894531 -2.363281 0.875 -2.160156 0.875 -1.921875 Z M 2.421875 -1.90625 C 2.421875 -1.9375 2.421875 -1.96875 2.421875 -2 C 2.421875 -2.039062 2.421875 -2.078125 2.421875 -2.109375 L 0.984375 -1.078125 C 1.046875 -0.890625 1.132812 -0.75 1.25 -0.65625 C 1.363281 -0.5625 1.5 -0.515625 1.65625 -0.515625 C 1.757812 -0.515625 1.859375 -0.539062 1.953125 -0.59375 C 2.046875 -0.65625 2.128906 -0.742188 2.203125 -0.859375 C 2.273438 -0.972656 2.328125 -1.113281 2.359375 -1.28125 C 2.398438 -1.457031 2.421875 -1.664062 2.421875 -1.90625 Z M 2.421875 -1.90625 "/></g></g><g transform="translate(43.4988, 20.899983)"><g><path d="M 0.453125 0 L 0.453125 -0.640625 L 1.421875 -0.640625 L 1.421875 -3.09375 L 0.578125 -2.625 L 0.34375 -3.21875 L 1.546875 -3.859375 L 2.15625 -3.859375 L 2.15625 -0.640625 L 3 -0.640625 L 3 0 Z M 0.453125 0 "/></g></g><g transform="translate(46.797626, 20.899983)"><g><path d="M 0.453125 0 L 0.453125 -0.640625 L 1.421875 -0.640625 L 1.421875 -3.09375 L 0.578125 -2.625 L 0.34375 -3.21875 L 1.546875 -3.859375 L 2.15625 -3.859375 L 2.15625 -0.640625 L 3 -0.640625 L 3 0 Z M 0.453125 0 "/></g></g></g></g></g></svg>