<svg xmlns="http://www.w3.org/2000/svg" xmlns:xlink="http://www.w3.org/1999/xlink" width="74.277344" zoomAndPan="magnify" viewBox="1.066406 27.132812 74.277344 19.507812" height="19.507812" preserveAspectRatio="xMidYMid meet" version="1.0"><defs><clipPath id="f77bfcd5ab"><path d="M 49 35 L 67 35 L 67 46.632812 L 49 46.632812 Z M 49 35 " clip-rule="nonzero"/></clipPath><clipPath id="3e55e2784c"><path d="M 48.347656 39 L 51 39 L 51 43 L 48.347656 43 Z M 48.347656 39 " clip-rule="nonzero"/></clipPath><clipPath id="340f63d2da"><path d="M 63 27.132812 L 75 27.132812 L 75 38 L 63 38 Z M 63 27.132812 " clip-rule="nonzero"/></clipPath><clipPath id="ff416e01f2"><path d="M 1.050781 36 L 14 36 L 14 44 L 1.050781 44 Z M 1.050781 36 " clip-rule="nonzero"/></clipPath><clipPath id="6e5a3d49fc"><path d="M 1.050781 36 L 15 36 L 15 44 L 1.050781 44 Z M 1.050781 36 " clip-rule="nonzero"/></clipPath><clipPath id="9c1f7d1c1a"><path d="M 17 35 L 31.050781 35 L 31.050781 44 L 17 44 Z M 17 35 " clip-rule="nonzero"/></clipPath><clipPath id="07674fc20d"><path d="M 7 36 L 25 36 L 25 46.640625 L 7 46.640625 Z M 7 36 " clip-rule="nonzero"/></clipPath><clipPath id="fd4bc33914"><path d="M 12 27.140625 L 20 27.140625 L 20 36 L 12 36 Z M 12 27.140625 " clip-rule="nonzero"/></clipPath><clipPath id="1e614c7e24"><path d="M 11 27.140625 L 21 27.140625 L 21 36 L 11 36 Z M 11 27.140625 " clip-rule="nonzero"/></clipPath><clipPath id="e112822fbb"><path d="M 33.300781 32.46875 L 46.800781 32.46875 L 46.800781 42.21875 L 33.300781 42.21875 Z M 33.300781 32.46875 " clip-rule="nonzero"/></clipPath></defs><g clip-path="url(#f77bfcd5ab)"><path fill="#000000" d="M 55.226562 35.675781 L 60.847656 35.675781 C 62.394531 35.675781 63.800781 36.292969 64.816406 37.285156 C 65.835938 38.277344 66.46875 39.648438 66.46875 41.152344 C 66.46875 42.660156 65.835938 44.03125 64.816406 45.023438 C 63.800781 46.015625 62.394531 46.632812 60.847656 46.632812 L 55.226562 46.632812 C 53.679688 46.632812 52.273438 46.015625 51.257812 45.023438 C 50.238281 44.03125 49.605469 42.660156 49.605469 41.152344 C 49.605469 39.648438 50.238281 38.277344 51.257812 37.285156 C 52.273438 36.292969 53.679688 35.675781 55.226562 35.675781 Z M 60.847656 37.039062 L 55.226562 37.039062 C 54.066406 37.039062 53.011719 37.503906 52.246094 38.25 C 51.480469 38.992188 51.003906 40.023438 51.003906 41.152344 C 51.003906 42.285156 51.480469 43.3125 52.246094 44.058594 C 53.007812 44.804688 54.066406 45.269531 55.226562 45.269531 L 60.847656 45.269531 C 62.007812 45.269531 63.0625 44.804688 63.828125 44.058594 C 64.59375 43.3125 65.070312 42.285156 65.070312 41.152344 C 65.070312 40.023438 64.59375 38.992188 63.828125 38.246094 C 63.0625 37.5 62.007812 37.039062 60.847656 37.039062 Z M 60.847656 37.039062 " fill-opacity="1" fill-rule="nonzero"/></g><path fill="#000000" d="M 57.5625 33.617188 L 58.511719 33.617188 L 58.511719 36.429688 L 57.5625 36.429688 Z M 57.5625 33.617188 " fill-opacity="1" fill-rule="evenodd"/><path fill="#000000" d="M 58.035156 32.339844 C 58.722656 32.339844 59.28125 32.882812 59.28125 33.554688 C 59.28125 34.226562 58.722656 34.769531 58.035156 34.769531 C 57.347656 34.769531 56.792969 34.226562 56.792969 33.554688 C 56.792969 32.882812 57.347656 32.339844 58.035156 32.339844 Z M 58.035156 32.339844 " fill-opacity="1" fill-rule="evenodd"/><path fill="#000000" d="M 54.9375 39.941406 C 55.625 39.941406 56.179688 40.484375 56.179688 41.152344 C 56.179688 41.824219 55.625 42.367188 54.9375 42.367188 C 54.246094 42.367188 53.691406 41.824219 53.691406 41.152344 C 53.691406 40.484375 54.246094 39.941406 54.9375 39.941406 Z M 54.9375 39.941406 " fill-opacity="1" fill-rule="evenodd"/><path fill="#000000" d="M 61.136719 39.941406 C 61.828125 39.941406 62.382812 40.484375 62.382812 41.152344 C 62.382812 41.824219 61.828125 42.367188 61.136719 42.367188 C 60.449219 42.367188 59.894531 41.824219 59.894531 41.152344 C 59.894531 40.484375 60.449219 39.941406 61.136719 39.941406 Z M 61.136719 39.941406 " fill-opacity="1" fill-rule="evenodd"/><g clip-path="url(#3e55e2784c)"><path fill="#000000" d="M 50.011719 42.773438 C 49.09375 42.773438 48.351562 42.046875 48.351562 41.152344 C 48.351562 40.257812 49.09375 39.535156 50.011719 39.535156 Z M 50.011719 42.773438 " fill-opacity="1" fill-rule="evenodd"/></g><path fill="#000000" d="M 66.085938 42.773438 C 67.003906 42.773438 67.75 42.046875 67.75 41.152344 C 67.75 40.257812 67.003906 39.535156 66.085938 39.535156 Z M 66.085938 42.773438 " fill-opacity="1" fill-rule="evenodd"/><g clip-path="url(#340f63d2da)"><path fill="#000000" d="M 65.832031 27.132812 L 72.691406 27.132812 C 73.421875 27.132812 74.085938 27.421875 74.566406 27.890625 C 75.046875 28.359375 75.34375 29.003906 75.34375 29.71875 L 75.34375 33.03125 C 75.34375 33.746094 75.046875 34.390625 74.566406 34.859375 C 74.085938 35.328125 73.421875 35.617188 72.691406 35.617188 L 69.785156 35.617188 L 67.6875 37.355469 C 67.527344 37.488281 67.339844 37.570312 67.140625 37.597656 C 66.941406 37.625 66.734375 37.59375 66.546875 37.511719 C 66.355469 37.425781 66.199219 37.289062 66.089844 37.125 C 65.980469 36.957031 65.917969 36.761719 65.917969 36.5625 L 65.917969 35.621094 L 65.832031 35.621094 C 65.101562 35.621094 64.4375 35.332031 63.957031 34.863281 C 63.476562 34.394531 63.179688 33.746094 63.179688 33.035156 L 63.179688 29.71875 C 63.179688 29.007812 63.476562 28.359375 63.957031 27.894531 C 64.4375 27.425781 65.101562 27.132812 65.832031 27.132812 Z M 72.691406 28.472656 L 65.832031 28.472656 C 65.484375 28.472656 65.164062 28.613281 64.929688 28.839844 C 64.699219 29.066406 64.554688 29.375 64.554688 29.71875 L 64.554688 33.035156 C 64.554688 33.375 64.699219 33.6875 64.929688 33.914062 C 65.164062 34.140625 65.484375 34.28125 65.832031 34.28125 L 67.296875 34.28125 L 67.296875 35.929688 L 69.285156 34.28125 L 72.691406 34.28125 C 73.042969 34.28125 73.363281 34.140625 73.59375 33.914062 C 73.828125 33.6875 73.972656 33.375 73.972656 33.035156 L 73.972656 29.71875 C 73.972656 29.375 73.828125 29.066406 73.59375 28.839844 C 73.363281 28.613281 73.042969 28.472656 72.691406 28.472656 Z M 72.691406 28.472656 " fill-opacity="1" fill-rule="nonzero"/></g><path fill="#373435" d="M 72.011719 30.636719 C 72.429688 30.636719 72.765625 30.96875 72.765625 31.375 C 72.765625 31.78125 72.429688 32.113281 72.011719 32.113281 C 71.59375 32.113281 71.253906 31.78125 71.253906 31.375 C 71.253906 30.96875 71.59375 30.636719 72.011719 30.636719 Z M 72.011719 30.636719 " fill-opacity="1" fill-rule="evenodd"/><path fill="#373435" d="M 69.265625 30.636719 C 69.683594 30.636719 70.019531 30.96875 70.019531 31.375 C 70.019531 31.78125 69.683594 32.113281 69.265625 32.113281 C 68.847656 32.113281 68.507812 31.78125 68.507812 31.375 C 68.507812 30.96875 68.847656 30.636719 69.265625 30.636719 Z M 69.265625 30.636719 " fill-opacity="1" fill-rule="evenodd"/><path fill="#373435" d="M 66.515625 30.636719 C 66.933594 30.636719 67.273438 30.96875 67.273438 31.375 C 67.273438 31.78125 66.933594 32.113281 66.515625 32.113281 C 66.097656 32.113281 65.761719 31.78125 65.761719 31.375 C 65.761719 30.96875 66.097656 30.636719 66.515625 30.636719 Z M 66.515625 30.636719 " fill-opacity="1" fill-rule="evenodd"/><g clip-path="url(#ff416e01f2)"><path fill="none" d="M 1.574219 43.449219 L 1.574219 42.679688 C 1.574219 41.863281 1.734375 41.078125 2.058594 40.328125 C 2.371094 39.601562 2.8125 38.957031 3.378906 38.398438 C 3.941406 37.839844 4.59375 37.40625 5.328125 37.09375 C 6.089844 36.777344 6.882812 36.617188 7.710938 36.617188 C 8.535156 36.617188 9.328125 36.777344 10.089844 37.09375 C 10.824219 37.40625 11.476562 37.839844 12.039062 38.398438 C 12.605469 38.957031 13.046875 39.601562 13.359375 40.328125 C 13.683594 41.078125 13.84375 41.863281 13.84375 42.679688 L 13.84375 43.449219 Z M 1.574219 43.449219 " fill-opacity="1" fill-rule="nonzero"/></g><g clip-path="url(#6e5a3d49fc)"><path fill="#000000" d="M 7.710938 37.121094 C 8.464844 37.121094 9.191406 37.265625 9.890625 37.558594 C 10.226562 37.703125 10.542969 37.871094 10.84375 38.074219 C 11.449219 38.480469 11.957031 38.980469 12.367188 39.582031 C 12.574219 39.878906 12.746094 40.195312 12.890625 40.523438 C 13.183594 41.210938 13.332031 41.929688 13.332031 42.679688 L 13.332031 42.945312 L 2.085938 42.945312 L 2.085938 42.679688 C 2.085938 41.929688 2.234375 41.210938 2.527344 40.523438 C 2.671875 40.191406 2.84375 39.878906 3.050781 39.582031 C 3.460938 38.980469 3.96875 38.480469 4.574219 38.074219 C 4.875 37.871094 5.195312 37.703125 5.527344 37.558594 C 6.226562 37.265625 6.953125 37.121094 7.710938 37.121094 M 7.710938 36.113281 C 4.054688 36.113281 1.066406 39.066406 1.066406 42.679688 L 1.066406 43.867188 C 1.066406 43.925781 1.09375 43.953125 1.152344 43.953125 L 14.265625 43.953125 C 14.324219 43.953125 14.351562 43.925781 14.355469 43.867188 L 14.355469 42.679688 C 14.355469 39.066406 11.363281 36.113281 7.710938 36.113281 Z M 7.710938 36.113281 " fill-opacity="1" fill-rule="nonzero"/></g><path fill="none" d="M 7.710938 35.355469 C 7.5 35.355469 7.292969 35.332031 7.085938 35.285156 C 6.882812 35.238281 6.683594 35.167969 6.496094 35.078125 C 6.308594 34.984375 6.132812 34.871094 5.96875 34.742188 C 5.804688 34.609375 5.660156 34.460938 5.53125 34.296875 C 5.40625 34.128906 5.296875 33.953125 5.210938 33.765625 C 5.125 33.574219 5.058594 33.378906 5.019531 33.175781 C 4.976562 32.96875 4.960938 32.765625 4.96875 32.558594 C 4.972656 32.347656 5.003906 32.144531 5.058594 31.945312 C 5.113281 31.742188 5.191406 31.550781 5.289062 31.367188 C 5.390625 31.183594 5.507812 31.015625 5.648438 30.859375 C 5.785156 30.703125 5.941406 30.5625 6.109375 30.441406 C 6.28125 30.320312 6.464844 30.21875 6.660156 30.140625 C 6.855469 30.0625 7.054688 30.003906 7.261719 29.972656 C 7.46875 29.9375 7.679688 29.925781 7.886719 29.941406 C 8.097656 29.953125 8.304688 29.992188 8.503906 30.050781 C 8.707031 30.113281 8.898438 30.195312 9.082031 30.296875 C 9.261719 30.402344 9.429688 30.523438 9.585938 30.667969 C 9.738281 30.808594 9.875 30.964844 9.988281 31.140625 C 10.105469 31.3125 10.203125 31.496094 10.277344 31.691406 C 10.351562 31.886719 10.402344 32.085938 10.429688 32.292969 C 10.457031 32.496094 10.460938 32.703125 10.4375 32.910156 C 10.417969 33.117188 10.375 33.320312 10.308594 33.515625 C 10.238281 33.714844 10.148438 33.898438 10.039062 34.078125 C 9.929688 34.253906 9.796875 34.414062 9.648438 34.5625 C 9.113281 35.09375 8.46875 35.359375 7.710938 35.355469 Z M 7.710938 35.355469 " fill-opacity="1" fill-rule="nonzero"/><path fill="#000000" d="M 7.710938 30.441406 C 7.878906 30.441406 8.050781 30.460938 8.214844 30.496094 C 8.382812 30.535156 8.542969 30.59375 8.695312 30.667969 C 8.851562 30.742188 8.992188 30.832031 9.125 30.941406 C 9.257812 31.046875 9.375 31.167969 9.480469 31.304688 C 9.585938 31.4375 9.671875 31.582031 9.742188 31.734375 C 9.8125 31.890625 9.867188 32.050781 9.898438 32.214844 C 9.933594 32.382812 9.945312 32.550781 9.941406 32.71875 C 9.933594 32.886719 9.910156 33.054688 9.867188 33.21875 C 9.820312 33.378906 9.757812 33.535156 9.679688 33.6875 C 9.597656 33.835938 9.5 33.972656 9.386719 34.101562 C 9.273438 34.226562 9.148438 34.339844 9.007812 34.4375 C 8.871094 34.539062 8.722656 34.621094 8.5625 34.683594 C 8.40625 34.75 8.242188 34.796875 8.074219 34.824219 C 7.902344 34.851562 7.734375 34.859375 7.5625 34.847656 C 7.390625 34.835938 7.226562 34.804688 7.0625 34.757812 C 6.898438 34.707031 6.742188 34.640625 6.59375 34.554688 C 6.445312 34.472656 6.308594 34.371094 6.183594 34.257812 C 6.058594 34.140625 5.949219 34.011719 5.851562 33.871094 C 5.757812 33.730469 5.679688 33.582031 5.621094 33.421875 C 5.558594 33.265625 5.519531 33.101562 5.496094 32.933594 C 5.472656 32.765625 5.46875 32.597656 5.488281 32.429688 C 5.503906 32.261719 5.539062 32.097656 5.59375 31.9375 C 5.648438 31.777344 5.722656 31.625 5.8125 31.480469 C 5.902344 31.335938 6.007812 31.207031 6.128906 31.085938 C 6.566406 30.652344 7.09375 30.4375 7.710938 30.441406 M 7.710938 29.429688 C 5.910156 29.429688 4.453125 30.871094 4.453125 32.644531 C 4.453125 34.421875 5.910156 35.863281 7.710938 35.863281 C 9.507812 35.863281 10.964844 34.421875 10.964844 32.644531 C 10.964844 30.871094 9.507812 29.429688 7.710938 29.429688 Z M 7.710938 29.429688 " fill-opacity="1" fill-rule="nonzero"/><path fill="none" d="M 18.261719 43.179688 L 18.261719 42.410156 C 18.261719 41.59375 18.421875 40.808594 18.746094 40.058594 C 19.058594 39.332031 19.5 38.6875 20.0625 38.128906 C 20.628906 37.570312 21.28125 37.136719 22.015625 36.828125 C 22.777344 36.507812 23.570312 36.347656 24.394531 36.347656 C 25.222656 36.347656 26.015625 36.507812 26.777344 36.828125 C 27.511719 37.136719 28.160156 37.570312 28.726562 38.128906 C 29.292969 38.6875 29.734375 39.332031 30.046875 40.058594 C 30.371094 40.808594 30.53125 41.59375 30.53125 42.410156 L 30.53125 43.179688 Z M 18.261719 43.179688 " fill-opacity="1" fill-rule="nonzero"/><g clip-path="url(#9c1f7d1c1a)"><path fill="#000000" d="M 24.394531 36.851562 C 25.152344 36.851562 25.878906 36.996094 26.574219 37.289062 C 26.910156 37.433594 27.230469 37.601562 27.53125 37.804688 C 28.136719 38.210938 28.644531 38.710938 29.054688 39.3125 C 29.257812 39.609375 29.433594 39.921875 29.574219 40.253906 C 29.871094 40.941406 30.019531 41.660156 30.019531 42.410156 L 30.019531 42.675781 L 18.773438 42.675781 L 18.773438 42.410156 C 18.773438 41.660156 18.917969 40.941406 19.214844 40.253906 C 19.359375 39.925781 19.53125 39.609375 19.734375 39.3125 C 20.144531 38.710938 20.652344 38.210938 21.261719 37.804688 C 21.5625 37.601562 21.878906 37.433594 22.214844 37.292969 C 22.910156 36.996094 23.636719 36.851562 24.394531 36.851562 M 24.394531 35.84375 C 20.742188 35.84375 17.75 38.796875 17.75 42.410156 L 17.75 43.597656 C 17.75 43.65625 17.78125 43.683594 17.839844 43.683594 L 30.953125 43.683594 C 31.011719 43.683594 31.039062 43.65625 31.039062 43.597656 L 31.039062 42.410156 C 31.039062 38.796875 28.050781 35.84375 24.394531 35.84375 Z M 24.394531 35.84375 " fill-opacity="1" fill-rule="nonzero"/></g><path fill="none" d="M 24.394531 35.085938 C 24.183594 35.085938 23.976562 35.0625 23.773438 35.015625 C 23.566406 34.96875 23.371094 34.898438 23.183594 34.808594 C 22.992188 34.714844 22.816406 34.605469 22.65625 34.472656 C 22.492188 34.339844 22.347656 34.191406 22.21875 34.027344 C 22.089844 33.863281 21.984375 33.683594 21.894531 33.496094 C 21.808594 33.304688 21.746094 33.109375 21.703125 32.90625 C 21.664062 32.703125 21.644531 32.496094 21.652344 32.289062 C 21.660156 32.082031 21.691406 31.875 21.746094 31.675781 C 21.800781 31.472656 21.875 31.28125 21.976562 31.097656 C 22.074219 30.914062 22.195312 30.746094 22.332031 30.589844 C 22.472656 30.433594 22.625 30.292969 22.796875 30.171875 C 22.96875 30.050781 23.152344 29.953125 23.34375 29.871094 C 23.539062 29.792969 23.742188 29.734375 23.949219 29.703125 C 24.15625 29.667969 24.363281 29.65625 24.574219 29.671875 C 24.785156 29.683594 24.988281 29.722656 25.191406 29.78125 C 25.394531 29.84375 25.585938 29.925781 25.765625 30.027344 C 25.949219 30.132812 26.117188 30.257812 26.269531 30.398438 C 26.425781 30.539062 26.558594 30.699219 26.675781 30.871094 C 26.792969 31.042969 26.886719 31.226562 26.960938 31.421875 C 27.035156 31.617188 27.085938 31.816406 27.113281 32.023438 C 27.140625 32.230469 27.144531 32.433594 27.125 32.640625 C 27.105469 32.847656 27.0625 33.050781 26.992188 33.25 C 26.925781 33.445312 26.835938 33.632812 26.726562 33.808594 C 26.613281 33.984375 26.484375 34.148438 26.335938 34.292969 C 25.800781 34.824219 25.152344 35.089844 24.394531 35.085938 Z M 24.394531 35.085938 " fill-opacity="1" fill-rule="nonzero"/><path fill="#000000" d="M 24.394531 30.171875 C 24.566406 30.171875 24.734375 30.191406 24.902344 30.226562 C 25.070312 30.265625 25.230469 30.324219 25.382812 30.398438 C 25.535156 30.472656 25.679688 30.5625 25.8125 30.671875 C 25.945312 30.777344 26.0625 30.898438 26.167969 31.035156 C 26.269531 31.167969 26.359375 31.3125 26.429688 31.464844 C 26.5 31.621094 26.550781 31.78125 26.585938 31.945312 C 26.617188 32.113281 26.632812 32.28125 26.625 32.449219 C 26.621094 32.617188 26.597656 32.785156 26.550781 32.949219 C 26.507812 33.109375 26.445312 33.265625 26.363281 33.417969 C 26.285156 33.566406 26.1875 33.703125 26.074219 33.832031 C 25.960938 33.957031 25.835938 34.070312 25.695312 34.167969 C 25.558594 34.269531 25.40625 34.351562 25.25 34.414062 C 25.089844 34.480469 24.929688 34.527344 24.757812 34.554688 C 24.589844 34.582031 24.421875 34.589844 24.25 34.578125 C 24.078125 34.566406 23.910156 34.535156 23.746094 34.488281 C 23.582031 34.4375 23.425781 34.371094 23.277344 34.289062 C 23.128906 34.203125 22.996094 34.101562 22.871094 33.988281 C 22.746094 33.871094 22.632812 33.742188 22.539062 33.601562 C 22.445312 33.460938 22.367188 33.3125 22.304688 33.152344 C 22.246094 32.996094 22.203125 32.832031 22.183594 32.664062 C 22.160156 32.496094 22.15625 32.328125 22.171875 32.160156 C 22.191406 31.992188 22.226562 31.828125 22.28125 31.667969 C 22.335938 31.507812 22.410156 31.355469 22.5 31.210938 C 22.589844 31.066406 22.695312 30.9375 22.816406 30.816406 C 23.253906 30.382812 23.777344 30.167969 24.394531 30.171875 M 24.394531 29.160156 C 22.597656 29.160156 21.140625 30.601562 21.140625 32.375 C 21.140625 34.152344 22.597656 35.59375 24.394531 35.59375 C 26.191406 35.59375 27.648438 34.152344 27.648438 32.375 C 27.648438 30.601562 26.191406 29.160156 24.394531 29.160156 Z M 24.394531 29.160156 " fill-opacity="1" fill-rule="nonzero"/><g clip-path="url(#07674fc20d)"><path fill="none" d="M 7.671875 46.136719 L 7.671875 44.855469 C 7.667969 43.746094 7.890625 42.679688 8.328125 41.660156 C 8.753906 40.671875 9.351562 39.796875 10.121094 39.039062 C 10.886719 38.28125 11.773438 37.691406 12.769531 37.269531 C 13.804688 36.832031 14.882812 36.617188 16.007812 36.617188 L 16.15625 36.617188 C 17.277344 36.617188 18.355469 36.832031 19.390625 37.269531 C 20.390625 37.691406 21.273438 38.28125 22.039062 39.039062 C 22.808594 39.796875 23.40625 40.671875 23.832031 41.660156 C 24.273438 42.679688 24.492188 43.746094 24.488281 44.855469 L 24.488281 46.136719 Z M 7.671875 46.136719 " fill-opacity="1" fill-rule="nonzero"/><path fill="#000000" d="M 16.15625 37.125 C 17.207031 37.121094 18.21875 37.324219 19.191406 37.734375 C 19.65625 37.929688 20.097656 38.167969 20.519531 38.449219 C 21.359375 39.011719 22.066406 39.710938 22.636719 40.542969 C 22.921875 40.957031 23.164062 41.394531 23.363281 41.855469 C 23.773438 42.8125 23.980469 43.8125 23.980469 44.855469 L 23.980469 45.632812 L 8.183594 45.632812 L 8.183594 44.855469 C 8.179688 43.8125 8.386719 42.8125 8.800781 41.855469 C 8.996094 41.394531 9.238281 40.957031 9.523438 40.542969 C 10.09375 39.710938 10.800781 39.011719 11.640625 38.449219 C 12.0625 38.167969 12.503906 37.929688 12.972656 37.734375 C 13.941406 37.324219 14.953125 37.121094 16.007812 37.125 L 16.15625 37.125 M 16.15625 36.113281 L 16.007812 36.113281 C 11.140625 36.113281 7.160156 40.046875 7.160156 44.855469 L 7.160156 46.527344 C 7.160156 46.601562 7.199219 46.640625 7.277344 46.640625 L 24.882812 46.640625 C 24.960938 46.640625 25 46.601562 25 46.527344 L 25 44.855469 C 25 40.046875 21.019531 36.113281 16.15625 36.113281 Z M 16.15625 36.113281 " fill-opacity="1" fill-rule="nonzero"/></g><g clip-path="url(#fd4bc33914)"><path fill="none" d="M 16.082031 35.269531 C 15.785156 35.269531 15.492188 35.238281 15.203125 35.171875 C 14.917969 35.105469 14.640625 35.007812 14.375 34.878906 C 14.109375 34.746094 13.863281 34.589844 13.632812 34.40625 C 13.402344 34.21875 13.199219 34.011719 13.019531 33.777344 C 12.839844 33.546875 12.6875 33.296875 12.566406 33.03125 C 12.445312 32.765625 12.355469 32.488281 12.296875 32.203125 C 12.238281 31.914062 12.214844 31.625 12.222656 31.332031 C 12.234375 31.042969 12.277344 30.753906 12.355469 30.472656 C 12.429688 30.1875 12.539062 29.917969 12.679688 29.660156 C 12.816406 29.402344 12.984375 29.164062 13.179688 28.945312 C 13.375 28.726562 13.59375 28.53125 13.832031 28.359375 C 14.074219 28.1875 14.332031 28.046875 14.605469 27.9375 C 14.878906 27.824219 15.160156 27.746094 15.453125 27.695312 C 15.742188 27.648438 16.039062 27.636719 16.332031 27.65625 C 16.628906 27.671875 16.917969 27.726562 17.199219 27.808594 C 17.484375 27.894531 17.753906 28.011719 18.007812 28.15625 C 18.265625 28.304688 18.5 28.476562 18.71875 28.675781 C 18.933594 28.875 19.125 29.097656 19.289062 29.339844 C 19.453125 29.582031 19.585938 29.84375 19.691406 30.117188 C 19.796875 30.390625 19.867188 30.671875 19.90625 30.960938 C 19.945312 31.25 19.949219 31.542969 19.917969 31.832031 C 19.890625 32.121094 19.828125 32.40625 19.734375 32.683594 C 19.636719 32.960938 19.511719 33.222656 19.355469 33.472656 C 19.199219 33.71875 19.015625 33.945312 18.808594 34.152344 C 18.054688 34.902344 17.148438 35.273438 16.082031 35.269531 Z M 16.082031 35.269531 " fill-opacity="1" fill-rule="nonzero"/></g><g clip-path="url(#1e614c7e24)"><path fill="#000000" d="M 16.082031 28.152344 C 16.355469 28.152344 16.625 28.183594 16.890625 28.25 C 17.15625 28.316406 17.40625 28.414062 17.648438 28.542969 C 17.890625 28.667969 18.113281 28.824219 18.316406 29.007812 C 18.519531 29.1875 18.695312 29.390625 18.847656 29.617188 C 19 29.839844 19.121094 30.082031 19.214844 30.335938 C 19.304688 30.589844 19.367188 30.851562 19.390625 31.121094 C 19.417969 31.390625 19.414062 31.660156 19.375 31.925781 C 19.332031 32.195312 19.261719 32.453125 19.15625 32.703125 C 19.050781 32.953125 18.917969 33.1875 18.753906 33.402344 C 18.59375 33.621094 18.40625 33.816406 18.195312 33.988281 C 17.984375 34.160156 17.753906 34.304688 17.507812 34.421875 C 17.261719 34.535156 17.003906 34.621094 16.734375 34.675781 C 16.464844 34.730469 16.195312 34.75 15.921875 34.738281 C 15.648438 34.722656 15.378906 34.679688 15.117188 34.601562 C 14.855469 34.523438 14.605469 34.414062 14.371094 34.277344 C 14.136719 34.140625 13.921875 33.976562 13.726562 33.785156 C 13.53125 33.59375 13.363281 33.382812 13.222656 33.152344 C 13.082031 32.921875 12.96875 32.675781 12.890625 32.417969 C 12.808594 32.160156 12.761719 31.894531 12.746094 31.625 C 12.730469 31.355469 12.75 31.085938 12.800781 30.820312 C 12.851562 30.554688 12.9375 30.300781 13.054688 30.054688 C 13.167969 29.808594 13.3125 29.582031 13.484375 29.371094 C 13.65625 29.160156 13.851562 28.976562 14.070312 28.8125 C 14.289062 28.648438 14.527344 28.515625 14.777344 28.410156 C 15.195312 28.238281 15.628906 28.152344 16.082031 28.152344 M 16.082031 27.140625 C 13.667969 27.140625 11.710938 29.074219 11.710938 31.457031 C 11.710938 33.84375 13.667969 35.777344 16.082031 35.777344 C 18.492188 35.777344 20.449219 33.84375 20.449219 31.457031 C 20.449219 29.074219 18.492188 27.140625 16.082031 27.140625 Z M 16.082031 27.140625 " fill-opacity="1" fill-rule="nonzero"/></g><g clip-path="url(#e112822fbb)"><path fill="#000000" d="M 46.578125 35.695312 L 43.015625 32.621094 C 42.871094 32.496094 42.710938 32.472656 42.539062 32.550781 C 42.363281 32.628906 42.277344 32.761719 42.277344 32.949219 L 42.277344 34.269531 L 37.378906 34.269531 C 37.253906 34.269531 37.148438 34.3125 37.0625 34.398438 C 36.976562 34.484375 36.933594 34.585938 36.933594 34.707031 L 36.933594 37.34375 C 36.933594 37.464844 36.976562 37.566406 37.0625 37.652344 C 37.148438 37.738281 37.253906 37.78125 37.378906 37.78125 L 42.277344 37.78125 L 42.277344 39.539062 L 37.378906 39.539062 C 37.253906 39.539062 37.148438 39.582031 37.0625 39.667969 C 36.976562 39.753906 36.933594 39.855469 36.933594 39.976562 L 36.933594 40.769531 L 34.507812 38.660156 L 36.667969 36.960938 L 36.113281 36.285156 L 33.539062 38.316406 C 33.425781 38.40625 33.371094 38.519531 33.371094 38.660156 C 33.367188 38.796875 33.417969 38.910156 33.519531 39 L 37.082031 42.074219 C 37.226562 42.195312 37.386719 42.21875 37.558594 42.144531 C 37.738281 42.0625 37.828125 41.929688 37.824219 41.734375 L 37.824219 40.417969 L 42.722656 40.417969 C 42.84375 40.417969 42.949219 40.375 43.035156 40.289062 C 43.125 40.203125 43.167969 40.097656 43.167969 39.976562 L 43.167969 37.34375 C 43.167969 37.222656 43.125 37.117188 43.035156 37.03125 C 42.949219 36.945312 42.84375 36.902344 42.722656 36.902344 L 37.824219 36.902344 L 37.824219 35.148438 L 42.722656 35.148438 C 42.84375 35.148438 42.949219 35.105469 43.035156 35.019531 C 43.125 34.933594 43.167969 34.828125 43.167969 34.707031 L 43.167969 33.917969 L 45.589844 36.023438 L 43.429688 37.726562 L 43.984375 38.414062 L 46.566406 36.382812 C 46.671875 36.292969 46.722656 36.179688 46.722656 36.046875 C 46.722656 35.910156 46.671875 35.796875 46.566406 35.707031 Z M 46.578125 35.695312 " fill-opacity="1" fill-rule="nonzero"/></g><path stroke-linecap="butt" transform="matrix(0.529955, 0.530705, -0.530705, 0.529955, 33.829719, 29.348485)" fill="none" stroke-linejoin="miter" d="M 0.00210464 0.998772 L 28.396873 1.000779 " stroke="#000000" stroke-width="2" stroke-opacity="1" stroke-miterlimit="4"/></svg>